<svg xmlns="http://www.w3.org/2000/svg" version="1.1" xmlns:xlink="http://www.w3.org/1999/xlink" xmlns:svgjs="http://svgjs.com/svgjs" width="512" height="512" x="0" y="0" viewBox="0 0 512 512" style="enable-background:new 0 0 512 512" xml:space="preserve" class=""><g><linearGradient id="a" x1="256" x2="256.001" y1="496.425" y2="15.574" gradientUnits="userSpaceOnUse"><stop stop-opacity="1" stop-color="#0494ca" offset="0"></stop><stop stop-opacity="1" stop-color="#00d6ff" offset="1"></stop></linearGradient><path fill="url(#a)" fill-rule="evenodd" d="M389.5 373.908a37.427 37.427 0 1 0-52.922-52.936h-.014a37.431 37.431 0 0 0 52.936 52.936zm-26.475-76.224a49.745 49.745 0 1 1-35.125 14.573 49.5 49.5 0 0 1 35.133-14.573zM0 436.274a6.122 6.122 0 0 1 6.151-6.144H158.43a6.144 6.144 0 1 1 0 12.288H6.152A6.168 6.168 0 0 1 0 436.274zm0-30.79a6.122 6.122 0 0 1 6.151-6.144H158.43a6.144 6.144 0 1 1 0 12.288H6.152A6.168 6.168 0 0 1 0 405.484zm0-30.719a6.121 6.121 0 0 1 6.151-6.143h107.48a6.144 6.144 0 1 1 0 12.287H6.152A6.168 6.168 0 0 1 0 374.765zm61.5-214.457a27.254 27.254 0 1 1 17.8-47.793l39.719-28.932a26.848 26.848 0 0 1-2.171-10.716 27.222 27.222 0 0 1 54.443 0 28.628 28.628 0 0 1-.208 3.286l32.776 11.93a27.393 27.393 0 0 1 22.782-12.358 27.1 27.1 0 0 1 17.8 6.715l39.72-28.933a27.108 27.108 0 1 1 7.251 9.93l-39.72 28.933a27.207 27.207 0 1 1-52.271 10.573 27.587 27.587 0 0 1 .214-3.286L166.9 87.726a27.111 27.111 0 0 1-22.831 12.359 26.653 26.653 0 0 1-17.789-6.644l-39.727 29a26.775 26.775 0 0 1 2.172 10.573A27.314 27.314 0 0 1 61.5 160.308zm-20.788 38.5H82.3v104.8H40.714v-104.8zm82.561-60.151v164.956h41.591V138.662zm82.568 30.075v134.881h1.829a160.912 160.912 0 0 1 39.77-68.938v-65.938zm82.583-60.151v95.656a160.465 160.465 0 0 1 41.584-14.859v-80.8zM512 341.261h-31.49A117.375 117.375 0 0 0 369.18 229.96v-31.5A148.9 148.9 0 0 1 512 341.261zm-43.478 111.658a148.839 148.839 0 0 1-99.342 43.506v-31.5a117.513 117.513 0 0 0 111.329-111.377H512a148.728 148.728 0 0 1-43.477 99.371zm-254.456-99.371h31.5A117.514 117.514 0 0 0 356.892 464.92v31.5a148.935 148.935 0 0 1-142.826-142.872zm74.446 68.438a105.414 105.414 0 1 1 149.063 0 105.554 105.554 0 0 1-149.063 0zm-30.947-180.024a148.8 148.8 0 0 1 99.327-43.506v31.5a117.376 117.376 0 0 0-111.322 111.3h-31.5a148.608 148.608 0 0 1 43.5-99.3z" data-original="url(#a)" class=""></path></g></svg>
