<svg xmlns="http://www.w3.org/2000/svg" version="1.1" xmlns:xlink="http://www.w3.org/1999/xlink" xmlns:svgjs="http://svgjs.com/svgjs" width="512" height="512" x="0" y="0" viewBox="0 0 512 512" style="enable-background:new 0 0 512 512" xml:space="preserve" class=""><g><linearGradient id="a" x1="256" x2="256" y1="512" y2="0" gradientUnits="userSpaceOnUse"><stop stop-opacity="1" stop-color="#00c3ff" offset="0"></stop><stop stop-opacity="1" stop-color="#307cb2" offset="0.44594594594594594"></stop><stop stop-opacity="1" stop-color="#0095ff" offset="1"></stop></linearGradient><linearGradient id="b" x1="256" x2="256" y1="512" y2="0" gradientUnits="userSpaceOnUse"><stop stop-opacity="1" stop-color="#00e7fd" offset="0"></stop><stop stop-opacity="1" stop-color="#00baff" offset="1"></stop></linearGradient><path fill="url(#a)" d="M477 240H307c-19.299 0-35-15.701-35-35V35c0-19.299 15.701-35 35-35h170c19.299 0 35 15.701 35 35v170c0 19.299-15.701 35-35 35zM205 512H35c-19.299 0-35-15.701-35-35V307c0-19.299 15.701-35 35-35h170c19.299 0 35 15.701 35 35v170c0 19.299-15.701 35-35 35z" data-original="url(#a)" class=""></path><path fill="url(#b)" d="M205 240H35c-19.299 0-35-15.701-35-35V35C0 15.701 15.701 0 35 0h170c19.299 0 35 15.701 35 35v170c0 19.299-15.701 35-35 35zm272 272H307c-19.299 0-35-15.701-35-35V307c0-19.299 15.701-35 35-35h170c19.299 0 35 15.701 35 35v170c0 19.299-15.701 35-35 35z" data-original="url(#b)" class=""></path></g></svg>
