<svg xmlns="http://www.w3.org/2000/svg" version="1.1" xmlns:xlink="http://www.w3.org/1999/xlink" xmlns:svgjs="http://svgjs.com/svgjs" width="512" height="512" x="0" y="0" viewBox="0 0 512 512" style="enable-background:new 0 0 512 512" xml:space="preserve" class=""><g><linearGradient id="a" x1="83.13" x2="429.12" y1="356.271" y2="10.281" gradientTransform="matrix(1 0 0 -1 0 513.02)" gradientUnits="userSpaceOnUse"><stop stop-opacity="1" stop-color="#3ad1ff" offset="0"></stop><stop stop-opacity="1" stop-color="#0059b2" offset="1"></stop></linearGradient><path fill="url(#a)" d="m481.71 281.91-37.77.06v193.521c0 16.57-13.43 30-30 30H312.05V389.73c0-31.02-25.14-56.17-56.17-56.17-15.51 0-29.55 6.29-39.72 16.45-10.16 10.17-16.45 24.21-16.45 39.72v115.76H97.829c-16.57 0-30-13.43-30-30V282.58l-37.44.06c-27 .04-40.55-32.6-21.46-51.69L217.11 22.769c21.68-21.68 56.83-21.68 78.51 0L503.07 230.22c19.06 19.06 5.59 51.64-21.36 51.69z" data-original="url(#a)" class=""></path></g></svg>
