<svg xmlns="http://www.w3.org/2000/svg" version="1.1" xmlns:xlink="http://www.w3.org/1999/xlink" xmlns:svgjs="http://svgjs.com/svgjs" width="512" height="512" x="0" y="0" viewBox="0 0 512 512" style="enable-background:new 0 0 512 512" xml:space="preserve" class=""><g><linearGradient id="a" x1="256" x2="256" y1="421" y2="31" gradientUnits="userSpaceOnUse"><stop stop-opacity="1" stop-color="#006fbe" offset="0"></stop><stop stop-opacity="1" stop-color="#00c0ff" offset="1"></stop></linearGradient><linearGradient id="b" x1="256" x2="256" y1="331" y2="91" gradientUnits="userSpaceOnUse"><stop offset="0" stop-color="#addcff"></stop><stop offset=".503" stop-color="#eaf6ff"></stop><stop offset="1" stop-color="#eaf6ff"></stop></linearGradient><path fill="url(#a)" d="M467 31H45C20.099 31 0 51.099 0 76v270c0 24.901 20.099 45 45 45h166l45 30 45-30h166c24.901 0 45-20.099 45-45V76c0-24.901-20.099-45-45-45z" data-original="url(#a)" class=""></path><path fill="url(#b)" d="M346 451h-45v-60h-90v60h-45c-8.401 0-15 6.599-15 15s6.599 15 15 15h180c8.401 0 15-6.599 15-15s-6.599-15-15-15zm-70.605-184.395c5.859 5.859 15.352 5.859 21.211 0L391 172.211V196c0 8.291 6.709 15 15 15s15-6.709 15-15v-60c0-8.206-6.727-15-15-15h-60c-8.291 0-15 6.709-15 15s6.709 15 15 15h23.789L286 234.789l-49.395-49.395c-5.859-5.859-15.352-5.859-21.211 0l-90 90c-5.859 5.859-5.859 15.352 0 21.211s15.351 5.859 21.211 0L226 217.211zM76 121h60c8.291 0 15-6.709 15-15s-6.709-15-15-15H76c-8.291 0-15 6.709-15 15s6.709 15 15 15zm75 45c0-8.291-6.709-15-15-15H76c-8.291 0-15 6.709-15 15s6.709 15 15 15h60c8.291 0 15-6.709 15-15zm285 135h-60c-8.291 0-15 6.709-15 15s6.709 15 15 15h60c8.291 0 15-6.709 15-15s-6.709-15-15-15z" data-original="url(#b)"></path></g></svg>
