<svg xmlns="http://www.w3.org/2000/svg" version="1.1" xmlns:xlink="http://www.w3.org/1999/xlink" xmlns:svgjs="http://svgjs.com/svgjs" width="512" height="512" x="0" y="0" viewBox="0 0 512 512" style="enable-background:new 0 0 512 512" xml:space="preserve" class=""><g><linearGradient id="a" x1="256" x2="256" y1="512" y2="45.747" gradientUnits="userSpaceOnUse"><stop stop-opacity="1" stop-color="#8fe9ff" offset="0"></stop><stop stop-opacity="1" stop-color="#ffffff" offset="0.3301158301158301"></stop></linearGradient><linearGradient id="b" x1="255.854" x2="255.854" y1="330" y2="0" gradientUnits="userSpaceOnUse"><stop stop-opacity="1" stop-color="#00cdff" offset="0"></stop><stop stop-opacity="1" stop-color="#00baff" offset="1"></stop></linearGradient><path fill="url(#a)" d="m450.297 460.892-58.184-212.278a15.076 15.076 0 0 0-11.807-10.781c-5.566-1.025-11.426 1.304-14.795 5.962-22.881 31.538-57.891 51.709-96.094 55.371-1.934.176-4.395 1.055-6.123 1.948a15.034 15.034 0 0 0-7.372 8.957c-1.318-3.979-4.231-7.478-8.068-9.396a15.152 15.152 0 0 0-5.273-1.509c-38.35-3.677-73.359-23.745-96.094-55.063-3.369-4.673-9.141-7.002-14.795-5.962a15.037 15.037 0 0 0-11.807 10.767L61.703 460.892a14.94 14.94 0 0 0 5.215 15.835c4.775 3.765 11.338 4.219 16.611 1.23l60.791-34.336 34.6 60.806A15.036 15.036 0 0 0 191.957 512c.615 0 1.23-.044 1.875-.117a15.042 15.042 0 0 0 12.598-10.913l49.585-181.858L305.57 500.97a15.04 15.04 0 0 0 12.598 10.913c.645.073 1.26.117 1.875.117a15.036 15.036 0 0 0 13.037-7.573l34.6-60.806 60.791 34.351c5.303 2.959 11.836 2.52 16.611-1.245a14.94 14.94 0 0 0 5.215-15.835zM180.912 189.404l-7.676 43.433c-1.787 11.265 2.783 22.441 12.305 29.414 5.273 3.633 11.338 5.552 17.578 5.552 4.805 0 9.58-1.187 13.857-3.442l38.877-20.581 38.408 20.317c4.307 2.49 9.287 3.809 14.385 3.809 6.826 0 12.949-2.065 17.871-5.903 9.17-6.724 13.74-17.9 11.895-29.414l-7.617-43.184 31.289-30.527c8.438-7.866 11.543-20.024 7.881-31.069-3.516-10.474-12.861-18.398-24.053-20.244l-43.77-6.372-19.365-39.507c-4.922-9.829-15.234-15.938-26.924-15.938s-22.002 6.108-26.982 16.04l-19.307 39.404-44.033 6.416c-10.928 1.802-20.273 9.727-23.818 20.288-3.633 10.957-.527 23.115 7.646 30.747z" data-original="url(#a)" class=""></path><path fill="url(#b)" d="M255.854 0c-90.901 0-165 74.099-165 165 0 35.099 10.8 68.699 31.5 96.599 27.599 38.401 70.501 63.001 117.001 67.5 5.4.601 11.1.901 16.5.901 5.7 0 11.1-.3 16.5-.901 46.8-4.499 89.401-29.099 117.301-67.8 20.4-28.2 31.199-61.5 31.199-96.299-.001-90.901-74.101-165-165.001-165zm96 147.9-37.2 36.301 9 50.999c.899 5.7-1.5 11.4-6 14.7-2.701 2.1-5.7 3.001-9 3.001-2.401 0-4.801-.601-6.899-1.8l-45.901-24.3-45.901 24.3c-5.099 2.699-11.1 2.1-15.899-1.201-4.501-3.3-6.899-9-6-14.7l9-50.999-37.2-36.301c-4.2-3.9-5.7-9.901-3.9-15.3s6.601-9.3 12.001-10.201l51.599-7.5 22.8-46.5c5.099-10.199 21.901-10.199 27.001 0l22.8 46.5 51.599 7.5c5.4.901 10.201 4.801 12.001 10.201s.299 11.4-3.901 15.3z" data-original="url(#b)" class=""></path></g></svg>
