<svg xmlns="http://www.w3.org/2000/svg" version="1.1" xmlns:xlink="http://www.w3.org/1999/xlink" xmlns:svgjs="http://svgjs.com/svgjs" width="512" height="512" x="0" y="0" viewBox="0 0 512 512" style="enable-background:new 0 0 512 512" xml:space="preserve" class=""><g><linearGradient id="a" x1="274.45" x2="274.45" y1="481" y2="31" gradientUnits="userSpaceOnUse"><stop stop-opacity="1" stop-color="#55d7ff" offset="0"></stop><stop stop-opacity="1" stop-color="#00c0ff" offset="0.584942084942085"></stop></linearGradient><linearGradient id="b" x1="233.5" x2="233.5" y1="480.998" y2="121" gradientUnits="userSpaceOnUse"><stop stop-opacity="1" stop-color="#ffffff" offset="0"></stop><stop stop-opacity="1" stop-color="#ffffff" offset="0.503"></stop><stop stop-opacity="1" stop-color="#fdfdfd" offset="1"></stop></linearGradient><path fill="url(#a)" d="M497 31H135c-8.401 0-15 6.599-15 15v375c0 16.5-13.499 30-30 30-8.401 0-15 6.599-15 15 0 4.2-19.2 7.8-38.101 10.199C44.099 479.5 51.899 481 60 481h377c41.4 0 75-33.6 75-75V46c0-8.401-6.599-15-15-15z" data-original="url(#a)" class=""></path><path fill="url(#b)" d="M15 331c-8.284 0-15 6.716-15 15v75c0 24.6 15.3 46.199 36.599 55.199.3.3.3 0 .3 0 6.767 3.103 14.065 4.614 21.645 4.785C92.333 481.743 120 451.64 120 417.842V331zm166-60h120c8.291 0 15-6.709 15-15V136c0-8.291-6.709-15-15-15H181c-8.291 0-15 6.709-15 15v120c0 8.291 6.709 15 15 15zm181-120h90c8.291 0 15-6.709 15-15s-6.709-15-15-15h-90c-8.291 0-15 6.709-15 15s6.709 15 15 15zm90 30h-90c-8.291 0-15 6.709-15 15s6.709 15 15 15h90c8.291 0 15-6.709 15-15s-6.709-15-15-15zm0 60h-90c-8.291 0-15 6.709-15 15s6.709 15 15 15h90c8.291 0 15-6.709 15-15s-6.709-15-15-15zm0 60H181c-8.291 0-15 6.709-15 15s6.709 15 15 15h271c8.291 0 15-6.709 15-15s-6.709-15-15-15zm0 60H181c-8.291 0-15 6.709-15 15s6.709 15 15 15h271c8.291 0 15-6.709 15-15s-6.709-15-15-15z" data-original="url(#b)" class=""></path></g></svg>
