<svg xmlns="http://www.w3.org/2000/svg" version="1.1" xmlns:xlink="http://www.w3.org/1999/xlink" xmlns:svgjs="http://svgjs.com/svgjs" width="512" height="512" x="0" y="0" viewBox="0 0 512 512" style="enable-background:new 0 0 512 512" xml:space="preserve" class=""><g><linearGradient id="a" x1="186.358" x2="458.203" y1="249.457" y2="249.457" gradientUnits="userSpaceOnUse"><stop offset="0" stop-color="#ffc538"></stop><stop offset=".349" stop-color="#f7e041"></stop><stop offset="1" stop-color="#fcf3b3"></stop></linearGradient><linearGradient id="b" x1="326.474" x2="221.287" y1="159.015" y2="159.015" gradientUnits="userSpaceOnUse"><stop offset=".032" stop-color="#8b451c"></stop><stop offset="1" stop-color="#8b451c" stop-opacity="0"></stop></linearGradient><radialGradient id="c" cx="341.095" cy="66.17" r="123.521" gradientUnits="userSpaceOnUse"><stop offset="0" stop-color="#fcf3b3"></stop><stop offset=".171" stop-color="#fbf1a6"></stop><stop offset=".488" stop-color="#faeb84"></stop><stop offset=".912" stop-color="#f8e24d"></stop><stop offset="1" stop-color="#f7e041"></stop></radialGradient><linearGradient id="d" x1="0" x2="271.845" y1="356.891" y2="356.891" gradientUnits="userSpaceOnUse"><stop offset="0" stop-color="#ff4757"></stop><stop offset=".476" stop-color="#ff7a85"></stop><stop offset="1" stop-color="#ff959d"></stop></linearGradient><linearGradient id="e" x1="140.116" x2="34.929" y1="266.449" y2="266.449" gradientUnits="userSpaceOnUse"><stop offset=".032" stop-color="#5d3645"></stop><stop offset="1" stop-color="#5d3645" stop-opacity="0"></stop></linearGradient><radialGradient id="f" cx="154.738" cy="173.604" r="123.521" gradientUnits="userSpaceOnUse"><stop offset="0" stop-color="#ff959d"></stop><stop offset=".233" stop-color="#ff8891"></stop><stop offset=".661" stop-color="#ff6673"></stop><stop offset="1" stop-color="#ff4757"></stop></radialGradient><linearGradient id="g" x1="240.155" x2="512" y1="384.795" y2="384.795" gradientUnits="userSpaceOnUse"><stop offset="0" stop-color="#0072bc"></stop><stop offset=".349" stop-color="#59acf9"></stop><stop offset="1" stop-color="#79d3fe"></stop></linearGradient><linearGradient id="h" x1="380.271" x2="275.084" y1="294.354" y2="294.354" gradientUnits="userSpaceOnUse"><stop offset=".032" stop-color="#00395e"></stop><stop offset="1" stop-color="#00395e" stop-opacity="0"></stop></linearGradient><radialGradient id="i" cx="394.893" cy="201.508" r="123.521" gradientUnits="userSpaceOnUse"><stop offset="0" stop-color="#59acf9"></stop><stop offset=".211" stop-color="#4ca9f9"></stop><stop offset=".601" stop-color="#2aa1f8"></stop><stop offset="1" stop-color="#0197f8"></stop></radialGradient><path fill="url(#a)" d="M322.28 132.725c-75.068 0-135.923 60.855-135.923 135.922v30.284l.038-.003c-.011 18.029 10.862 35.246 33.138 48.106 49.143 28.373 134.982 24.815 191.727-7.947 31.035-17.918 46.901-40.858 46.903-62.611l.039-.003v-7.826c.001-75.068-60.854-135.922-135.922-135.922z" data-original="url(#a)"></path><path fill="url(#b)" d="M215.55 184.48h106.73l-14.983-50.929c-37.134 4.072-69.768 23.096-91.747 50.929z" data-original="url(#b)"></path><circle cx="322.28" cy="97.477" r="86.986" fill="url(#c)" data-original="url(#c)"></circle><path fill="url(#d)" d="M135.923 240.158C60.854 240.158 0 301.013 0 376.081v30.284l.038-.003c-.011 18.029 10.862 35.246 33.138 48.106 49.143 28.373 134.982 24.815 191.727-7.947 31.035-17.918 46.901-40.858 46.903-62.611l.039-.003v-7.826c0-75.068-60.854-135.923-135.922-135.923z" data-original="url(#d)"></path><path fill="url(#e)" d="M29.192 291.914h106.731l-14.983-50.929c-37.135 4.072-69.769 23.096-91.748 50.929z" data-original="url(#e)"></path><circle cx="135.923" cy="204.91" r="86.986" fill="url(#f)" data-original="url(#f)" class=""></circle><path fill="url(#g)" d="M376.078 268.063c-75.068 0-135.923 60.855-135.923 135.922v30.284l.038-.003c-.011 18.029 10.862 35.246 33.138 48.106 49.143 28.373 134.982 24.815 191.727-7.947 31.035-17.918 46.901-40.858 46.903-62.611l.039-.003v-7.826c0-75.068-60.854-135.922-135.922-135.922z" data-original="url(#g)"></path><path fill="url(#h)" d="M269.347 319.818h106.731l-14.983-50.93c-37.135 4.073-69.769 23.097-91.748 50.93z" data-original="url(#h)"></path><circle cx="376.077" cy="232.815" r="86.986" fill="url(#i)" data-original="url(#i)"></circle></g></svg>
