<svg xmlns="http://www.w3.org/2000/svg" version="1.1" xmlns:xlink="http://www.w3.org/1999/xlink" xmlns:svgjs="http://svgjs.com/svgjs" width="512" height="512" x="0" y="0" viewBox="0 0 512 512" style="enable-background:new 0 0 512 512" xml:space="preserve" class=""><g><linearGradient id="a"><stop offset="0" stop-color="#7f4d10"></stop><stop offset="1" stop-color="#c69535"></stop></linearGradient><linearGradient xlink:href="#a" id="e" x1="184" x2="256" y1="160" y2="160" gradientUnits="userSpaceOnUse"></linearGradient><linearGradient id="b"><stop offset="0" stop-color="#c69535"></stop><stop offset=".256" stop-color="#b9872e"></stop><stop offset=".734" stop-color="#95641c"></stop><stop offset="1" stop-color="#7f4d10"></stop></linearGradient><linearGradient xlink:href="#b" id="f" x1="40" x2="256" y1="232" y2="232" gradientUnits="userSpaceOnUse"></linearGradient><linearGradient id="c"><stop offset="0" stop-color="#7f4d10"></stop><stop offset=".232" stop-color="#835112"></stop><stop offset=".47" stop-color="#8f5e18"></stop><stop offset=".712" stop-color="#a47223"></stop><stop offset=".955" stop-color="#c08f32"></stop><stop offset="1" stop-color="#c69535"></stop></linearGradient><linearGradient xlink:href="#c" id="g" x1="40" x2="256" y1="264" y2="264" gradientUnits="userSpaceOnUse"></linearGradient><linearGradient xlink:href="#b" id="h" x1="120" x2="256" y1="376" y2="376" gradientUnits="userSpaceOnUse"></linearGradient><linearGradient xlink:href="#c" id="i" x1="120" x2="256" y1="376" y2="376" gradientUnits="userSpaceOnUse"></linearGradient><linearGradient id="d"><stop offset="0" stop-color="#fbf4c5"></stop><stop offset="1" stop-color="#ecda84"></stop></linearGradient><linearGradient xlink:href="#d" id="j" x1="256" x2="328" y1="160" y2="160" gradientUnits="userSpaceOnUse"></linearGradient><linearGradient id="k" x1="256" x2="472" y1="232" y2="232" gradientUnits="userSpaceOnUse"><stop offset="0" stop-color="#ecda84"></stop><stop offset="1" stop-color="#c69535"></stop></linearGradient><linearGradient xlink:href="#a" id="l" x1="256" x2="472" y1="264" y2="264" gradientUnits="userSpaceOnUse"></linearGradient><linearGradient xlink:href="#d" id="m" x1="256" x2="392" y1="376" y2="376" gradientUnits="userSpaceOnUse"></linearGradient><linearGradient xlink:href="#a" id="n" x1="256" x2="392" y1="376" y2="376" gradientUnits="userSpaceOnUse"></linearGradient><path fill="#fdf9df" d="m472 216-144-32-72-144-72 144-144 32 104 96-24 160 136-80 136 80-24-160z" data-original="#fdf9df"></path><path fill="url(#e)" d="M256 40v240l-72-96z" data-original="url(#e)" class=""></path><path fill="url(#f)" d="M256 280 40 216l144-32z" data-original="url(#f)" class=""></path><path fill="url(#g)" d="m256 280-112 32-104-96z" data-original="url(#g)"></path><path fill="url(#h)" d="M256 280 120 472l24-160z" data-original="url(#h)"></path><path fill="url(#i)" d="M256 280v112l-136 80z" data-original="url(#i)"></path><path fill="url(#j)" d="m328 184-72 96V40z" data-original="url(#j)" class=""></path><path fill="url(#k)" d="m472 216-216 64 72-96z" data-original="url(#k)" class=""></path><path fill="url(#l)" d="m472 216-104 96-112-32z" data-original="url(#l)" class=""></path><path fill="url(#m)" d="M392 472 256 280l112 32z" data-original="url(#m)"></path><path fill="url(#n)" d="m392 472-136-80V280z" data-original="url(#n)"></path></g></svg>
