<svg xmlns="http://www.w3.org/2000/svg" version="1.1" xmlns:xlink="http://www.w3.org/1999/xlink" xmlns:svgjs="http://svgjs.com/svgjs" width="512" height="512" x="0" y="0" viewBox="0 0 256 256" style="enable-background:new 0 0 512 512" xml:space="preserve" class=""><g><path fill="#58595b" d="M161.671 20.217v31.75H94.329v-31.75a2 2 0 0 1 2-2h63.341a2 2 0 0 1 2.001 2z" data-original="#58595b"></path><path fill="#414042" d="M159.671 18.217h-8v23.75H94.329v10h67.341v-31.75c.001-1.105-.895-2-1.999-2z" data-original="#414042"></path><circle cx="128" cy="150.839" r="86.944" fill="#ffa91a" data-original="#ffa91a" class=""></circle><path fill="#ffc91d" d="M59.2 195.43c-.7 0-1.34-.35-1.7-.94a2 2 0 0 1 .64-2.76c.91-.56 2.19-.26 2.75.65.28.45.37.99.25 1.51s-.44.96-.89 1.24c-.32.2-.68.3-1.05.3zm-3.89-6.99a2 2 0 0 1-1.79-1.11 81.923 81.923 0 0 1-6.26-17.48 82.94 82.94 0 0 1-2.2-19.01c0-45.73 37.21-82.94 82.94-82.95 12.47 0 24.46 2.72 35.65 8.06 2.45 1.18 4.88 2.49 7.21 3.9.46.27.78.71.9 1.23.13.52.05 1.06-.23 1.51-.55.92-1.82 1.24-2.74.68-2.25-1.36-4.55-2.6-6.87-3.71-10.64-5.08-22.05-7.66-33.92-7.66-21.05 0-40.86 8.22-55.79 23.14-14.93 14.93-23.15 34.75-23.15 55.8 0 12.17 2.71 23.86 8.05 34.72v.01c.24.47.27 1.01.1 1.52-.18.5-.53.91-1.01 1.15-.28.13-.58.2-.89.2z" data-original="#ffc91d" class=""></path><path fill="#f79219" d="M184.276 84.564c12.89 15.166 20.668 34.812 20.668 56.276 0 48.018-38.926 86.944-86.944 86.944-21.463 0-41.11-7.778-56.276-20.668 15.948 18.763 39.721 30.668 66.276 30.668 48.018 0 86.944-38.926 86.944-86.944 0-26.555-11.905-50.328-30.668-66.276z" data-original="#f79219" class=""></path><path fill="#ef7816" d="M186.928 86.912c14.288 15.492 23.016 36.191 23.016 58.927 0 48.018-38.926 86.944-86.944 86.944-22.737 0-43.435-8.728-58.928-23.016 15.887 17.226 38.647 28.016 63.928 28.016 48.018 0 86.944-38.926 86.944-86.944 0-25.28-10.79-48.04-28.016-63.927z" data-original="#ef7816" class=""></path><path fill="#f79219" d="M176.026 78.353V38.907a4 4 0 0 0-4-4h-10.355v35.749a86.742 86.742 0 0 1 14.355 7.697z" data-original="#f79219" class=""></path><path fill="#ef7816" d="M172.026 34.907h-1v38.445a86.736 86.736 0 0 0-9.355-5.404v2.708a86.772 86.772 0 0 1 14.355 7.696V38.907a4 4 0 0 0-4-4z" data-original="#ef7816" class=""></path><path fill="#f79219" d="M94.329 70.656V34.907H83.974a4 4 0 0 0-4 4v39.445a86.812 86.812 0 0 1 14.355-7.696z" data-original="#f79219" class=""></path><path fill="#ef7816" d="M89.329 34.907v30.749a86.576 86.576 0 0 0-9.355 4.615v8.081a86.697 86.697 0 0 1 14.355-7.696V34.907z" data-original="#ef7816" class=""></path><circle cx="128" cy="150.839" r="62.015" fill="#ef7816" data-original="#ef7816" class=""></circle><path fill="#ffc91d" d="m132.483 103.461 8.613 26.508a4.714 4.714 0 0 0 4.483 3.257h26.187c5.097 0 7.216 6.522 3.092 9.517l-21.186 15.392a4.712 4.712 0 0 0-1.712 5.27l8.613 26.508c1.411 4.343-3.559 7.954-7.254 5.27l-22.227-16.149a5.26 5.26 0 0 0-6.185 0l-22.227 16.149c-3.694 2.684-8.665-.927-7.254-5.27l8.613-26.508a4.714 4.714 0 0 0-1.712-5.27l-21.186-15.392c-4.123-2.996-2.004-9.517 3.092-9.517h26.187a4.714 4.714 0 0 0 4.483-3.257l8.613-26.508c1.412-4.342 7.556-4.342 8.967 0z" data-original="#ffc91d" class=""></path><path fill="#f79219" d="M172.028 133.232c.095 1.643-.564 3.345-2.17 4.511l-21.186 15.392a4.712 4.712 0 0 0-1.712 5.27l8.613 26.508c1.411 4.343-3.56 7.954-7.254 5.27l-22.227-16.149a5.26 5.26 0 0 0-6.185 0L97.68 190.183c-.795.578-1.65.864-2.488.913-.267 3.774 4.135 6.522 7.488 4.087l22.227-16.149a5.26 5.26 0 0 1 6.185 0l22.227 16.149c3.694 2.684 8.665-.927 7.254-5.27l-8.613-26.508a4.714 4.714 0 0 1 1.712-5.27l21.186-15.392c4.052-2.943 2.076-9.292-2.83-9.511z" data-original="#f79219" class=""></path><path fill="#ffc91d" d="M44.065 49.435a33 33 0 0 1-16.159 16.159 3.278 3.278 0 0 0 0 5.972 32.984 32.984 0 0 1 16.159 16.157 3.277 3.277 0 0 0 5.982 0 32.968 32.968 0 0 1 16.159-16.157 3.278 3.278 0 0 0 0-5.972 32.976 32.976 0 0 1-16.159-16.159 3.277 3.277 0 0 0-5.982 0z" data-original="#ffc91d" class=""></path><path fill="#ffa91a" d="M67.841 67.228a3.276 3.276 0 0 0-1.634-1.634 32.982 32.982 0 0 1-8.409-5.571 3.266 3.266 0 0 1-1.591 1.544 32.968 32.968 0 0 0-16.159 16.157 3.272 3.272 0 0 1-1.547 1.601 32.947 32.947 0 0 1 5.564 8.399 3.278 3.278 0 0 0 5.983 0 32.968 32.968 0 0 1 16.159-16.157 3.279 3.279 0 0 0 1.634-4.339z" data-original="#ffa91a" class=""></path><path fill="#ffc91d" d="M219.435 195.372a33 33 0 0 1-16.159 16.159 3.278 3.278 0 0 0 0 5.972 32.984 32.984 0 0 1 16.159 16.157 3.277 3.277 0 0 0 5.982 0 32.968 32.968 0 0 1 16.159-16.157 3.278 3.278 0 0 0 0-5.972 32.976 32.976 0 0 1-16.159-16.159 3.277 3.277 0 0 0-5.982 0z" data-original="#ffc91d" class=""></path><path fill="#ffa91a" d="M243.21 213.165a3.276 3.276 0 0 0-1.634-1.634 32.982 32.982 0 0 1-8.409-5.571 3.266 3.266 0 0 1-1.591 1.544 32.968 32.968 0 0 0-16.159 16.157 3.272 3.272 0 0 1-1.547 1.601 32.947 32.947 0 0 1 5.564 8.399 3.278 3.278 0 0 0 5.983 0 32.968 32.968 0 0 1 16.159-16.157 3.278 3.278 0 0 0 1.634-4.339z" data-original="#ffa91a" class=""></path></g></svg>