<svg xmlns="http://www.w3.org/2000/svg" version="1.1" xmlns:xlink="http://www.w3.org/1999/xlink" xmlns:svgjs="http://svgjs.com/svgjs" width="512" height="512" x="0" y="0" viewBox="0 0 64 64" style="enable-background:new 0 0 512 512" xml:space="preserve" class=""><g transform="matrix(0.9299999999999999,0,0,0.9299999999999999,2.240000000000002,2.240000000000002)"><g fill-rule="evenodd"><path fill="#32dc82" d="M48 64H16A16 16 0 0 1 0 48V16A16 16 0 0 1 16 0h32a16 16 0 0 1 16 16v32a16 16 0 0 1-16 16" data-original="#32dc82" class=""></path><path fill="#4bf59b" d="M30 18h18A9 9 0 0 0 48.92.046C48.614.029 48.311 0 48 0H16A16 16 0 0 0 0 16v32a30 30 0 0 1 30-30" data-original="#4bf59b" class=""></path><path fill="#19c369" d="M48 32a16 16 0 1 0 16 16V16a16 16 0 0 1-16 16" data-original="#19c369"></path><g fill="#fff"><path d="M46 32H18v14a2 2 0 0 0 2 2h24a2 2 0 0 0 2-2zM16 35a3 3 0 0 0-6 0v10a3 3 0 0 0 6 0zM54 35a3 3 0 0 0-6 0v10a3 3 0 0 0 6 0zM18 30h28a14.02 14.02 0 0 0-5.319-10.984l3.185-5.516a1 1 0 0 0-1.732-1l-3.111 5.389a14.008 14.008 0 0 0-14.047-.002l-3.11-5.387a1 1 0 0 0-1.732 1l3.185 5.516A13.974 13.974 0 0 0 18 30zm20.5-7a1.5 1.5 0 1 1-1.5 1.5 1.5 1.5 0 0 1 1.5-1.5zm-13 0a1.5 1.5 0 1 1-1.5 1.5 1.5 1.5 0 0 1 1.5-1.5z" fill="#ffffff" data-original="#ffffff" class=""></path></g></g></g></svg>
