<svg xmlns="http://www.w3.org/2000/svg" version="1.1" xmlns:xlink="http://www.w3.org/1999/xlink" xmlns:svgjs="http://svgjs.com/svgjs" width="512" height="512" x="0" y="0" viewBox="0 0 496.412 496.412" style="enable-background:new 0 0 512 512" xml:space="preserve" class=""><g><path d="M317.222 80.584C333.414 59.696 345.686 30.152 341.246 0c-26.472 1.84-57.384 18.768-75.432 40.832-16.456 20-29.976 49.728-24.688 78.608 28.928.904 58.784-16.432 76.096-38.856z" fill="#000000" data-original="#000000"></path><path d="M445.838 166.544c-25.4-31.872-61.12-50.344-94.848-50.344-44.512 0-63.352 21.312-94.264 21.312-31.896 0-56.12-21.248-94.624-21.248-37.832 0-78.112 23.12-103.64 62.64C22.574 234.576 28.694 339.2 86.894 428.336c20.808 31.904 48.592 67.744 84.952 68.072 32.36.32 41.488-20.752 85.336-20.992 43.832-.256 52.16 21.264 84.456 20.896 36.384-.288 65.712-40.016 86.512-71.92 14.912-22.848 20.48-34.376 32.056-60.184-84.192-32.024-97.688-151.72-14.368-197.664z" style="" fill="#1b546b" data-original="#1b546b" class=""></path><path d="M394.774 228.08c-63.632 51.52-153.592 83.712-253.44 83.712-35.776 0-70.288-4.144-102.768-11.808 5.496 41.808 21.16 86.736 48.336 128.344 20.808 31.904 48.592 67.744 84.952 68.072 32.36.32 41.488-20.752 85.336-20.992 43.832-.256 52.16 21.264 84.456 20.896 36.384-.288 65.712-40.016 86.512-71.92 14.912-22.848 20.48-34.376 32.056-60.184-57.248-21.76-81.76-84.024-65.44-136.12z" fill="#000000" data-original="#000000"></path></g></svg>
