<svg xmlns="http://www.w3.org/2000/svg" version="1.1" xmlns:xlink="http://www.w3.org/1999/xlink" xmlns:svgjs="http://svgjs.com/svgjs" width="512" height="512" x="0" y="0" viewBox="0 0 512 512" style="enable-background:new 0 0 512 512" xml:space="preserve" class=""><g><path d="M512 255.993c0 141.39-114.605 256.005-255.995 256.005C114.617 511.999 0 397.383 0 255.993 0 114.613 114.617.001 256.005.001 397.395.001 512 114.613 512 255.993z" style="" fill="#e95420" data-original="#e95420" class=""></path><path d="M123.143 255.993c0 18.179-14.737 32.918-32.928 32.918-18.169 0-32.906-14.739-32.906-32.918 0-18.17 14.737-32.907 32.906-32.907 18.191 0 32.928 14.738 32.928 32.907zM310.4 416.036c9.091 15.73 29.212 21.126 44.954 12.047 15.741-9.091 21.135-29.222 12.046-44.965-9.089-15.741-29.212-21.124-44.953-12.035-15.742 9.09-21.136 29.212-12.047 44.953zm57-287.157c9.089-15.744 3.706-35.872-12.046-44.951-15.732-9.089-35.863-3.695-44.954 12.041-9.089 15.742-3.695 35.866 12.047 44.955 15.741 9.091 35.874 3.696 44.953-12.045zm-111.395 33.259c49.045 0 89.288 37.596 93.491 85.549l47.634-.751c-2.261-35.631-17.716-67.677-41.534-91.306-12.608 4.865-27.236 4.202-39.857-3.09-12.63-7.291-20.518-19.635-22.603-33.009a141.514 141.514 0 0 0-37.132-4.936c-22.526 0-43.817 5.267-62.724 14.636l23.176 41.621c12.015-5.581 25.429-8.714 39.549-8.714zm-93.866 93.855c0-31.748 15.775-59.824 39.912-76.801l-24.456-40.882c-28.329 18.919-49.431 47.777-58.333 81.61 10.535 8.484 17.286 21.49 17.286 36.073 0 14.594-6.751 27.6-17.286 36.084 8.902 33.833 30.005 62.69 58.333 81.62l24.456-40.882c-24.136-16.987-39.912-45.052-39.912-76.822zm93.866 93.876c-14.12 0-27.534-3.133-39.547-8.724l-23.176 41.621c18.907 9.377 40.198 14.638 62.724 14.638 12.841 0 25.294-1.709 37.132-4.93 2.085-13.383 9.973-25.726 22.603-33.006 12.621-7.292 27.248-7.955 39.857-3.09 23.818-23.64 39.273-55.686 41.534-91.317l-47.634-.739c-4.205 47.943-44.448 85.547-93.493 85.547z" style="" fill="#ffffff" data-original="#ffffff"></path></g></svg>
