<svg xmlns="http://www.w3.org/2000/svg" version="1.1" xmlns:xlink="http://www.w3.org/1999/xlink" xmlns:svgjs="http://svgjs.com/svgjs" width="512" height="512" x="0" y="0" viewBox="0 0 60 60" style="enable-background:new 0 0 512 512" xml:space="preserve" class=""><g><path fill="#213684" d="M54 46V12c0-1.66-1.34-3-3-3H9c-1.66 0-3 1.34-3 3v34z" data-original="#213684" class=""></path><path fill="#d9dbe2" d="M2 45h56a1 1 0 0 1 1 1v3c0 2.208-1.792 4-4 4H5c-2.208 0-4-1.792-4-4v-3a1 1 0 0 1 1-1z" data-original="#d9dbe2"></path><path fill="#aaafbc" d="M38 45v2a2 2 0 0 1-2 2H24a2 2 0 0 1-2-2v-2z" data-original="#aaafbc"></path><g fill="#208ed1"><path d="M12 27h9v2h-9zM21.75 25H16c-1.103 0-2-.897-2-2v-5h2v5h5.75zM16 38h-2v-5c0-1.103.897-2 2-2h5.75v2H16zM39 27h9v2h-9zM44 25h-5.75v-2H44v-5h2v5c0 1.103-.897 2-2 2zM46 38h-2v-5h-5.75v-2H44c1.103 0 2 .897 2 2z" fill="#208ed1" data-original="#208ed1"></path></g><g fill="#3cb3ef"><ellipse cx="12" cy="27.978" rx="2" ry="1.978" fill="#3cb3ef" data-original="#3cb3ef"></ellipse><circle cx="15" cy="18" r="2" fill="#3cb3ef" data-original="#3cb3ef"></circle><circle cx="15" cy="38" r="2" fill="#3cb3ef" data-original="#3cb3ef"></circle><ellipse cx="48" cy="27.978" rx="2" ry="1.978" fill="#3cb3ef" data-original="#3cb3ef"></ellipse><circle cx="45" cy="18" r="2" fill="#3cb3ef" data-original="#3cb3ef"></circle><circle cx="45" cy="38" r="2" fill="#3cb3ef" data-original="#3cb3ef"></circle></g><path fill="#0e173d" d="M33 19v-5c0-1.65-1.35-3-3-3s-3 1.35-3 3v5l-4 .51V14c0-3.87 3.13-7 7-7s7 3.13 7 7v5.51z" data-original="#0e173d"></path><circle cx="30" cy="28" r="11" fill="#efb93f" data-original="#efb93f"></circle><path fill="#d19f3b" d="M33 26c0 .89-.38 1.69-1 2.23V30c0 1.1-.9 2-2 2s-2-.9-2-2v-1.77c-.62-.54-1-1.34-1-2.23 0-1.66 1.34-3 3-3s3 1.34 3 3z" data-original="#d19f3b"></path></g></svg>
