<svg xmlns="http://www.w3.org/2000/svg" version="1.1" xmlns:xlink="http://www.w3.org/1999/xlink" xmlns:svgjs="http://svgjs.com/svgjs" width="512" height="512" x="0" y="0" viewBox="0 0 64 64" style="enable-background:new 0 0 512 512" xml:space="preserve" class=""><g><g fill-rule="evenodd"><path fill="#00b4ff" d="M48 64H16A16 16 0 0 1 0 48V16A16 16 0 0 1 16 0h32a16 16 0 0 1 16 16v32a16 16 0 0 1-16 16" data-original="#00b4ff"></path><path fill="#1ec8ff" d="M30 18h18A9 9 0 0 0 48.92.046C48.614.029 48.311 0 48 0H16A16 16 0 0 0 0 16v32a30 30 0 0 1 30-30" data-original="#1ec8ff" class=""></path><path fill="#00a0f0" d="M48 32a16 16 0 1 0 16 16V16a16 16 0 0 1-16 16" data-original="#00a0f0"></path><path fill="#ffffff" d="M47.998 30a1 1 0 0 1-1 1H31a1 1 0 0 1-1-1V18.015a1 1 0 0 1 .826-.985l16-2.823a1 1 0 0 1 1.174.985L47.998 30zM26.826 17.736a1 1 0 0 1 1.174.985V30a1 1 0 0 1-1 1H15.002a1 1 0 0 1-1-1l-.004-9.161a1 1 0 0 1 .826-.985l12.002-2.118zM14.004 34a1 1 0 0 1 1-1H27a1 1 0 0 1 1 1v11.278a1 1 0 0 1-1.174.985l-11.992-2.117a1 1 0 0 1-.826-.985L14.004 34zm33.992 14.808a1 1 0 0 1-1.174.985l-15.996-2.824a1 1 0 0 1-.826-.985V34a1 1 0 0 1 1-1h15.998a1 1 0 0 1 1 1l-.002 14.808z" data-original="#ffffff"></path></g></g></svg>
