<svg xmlns="http://www.w3.org/2000/svg" version="1.1" xmlns:xlink="http://www.w3.org/1999/xlink" xmlns:svgjs="http://svgjs.com/svgjs" width="512" height="512" x="0" y="0" viewBox="0 0 512 512" style="enable-background:new 0 0 512 512" xml:space="preserve" class=""><g><linearGradient id="a" x1="43.93" x2="468.07" y1="43.93" y2="468.07" gradientTransform="rotate(-90 256 256)" gradientUnits="userSpaceOnUse"><stop offset="0" stop-color="#2492ff"></stop><stop offset="1" stop-color="#0043ae"></stop></linearGradient><g data-name="50"><rect width="512" height="512" fill="url(#a)" rx="150" transform="rotate(90 256 256)" data-original="url(#a)" class=""></rect><g fill="#fff"><path d="M416 266H276c-5.52 0-10 4.48-10 10v140c0 5.52 4.48 10 10 10h140c5.52 0 10-4.48 10-10V276c0-5.52-4.48-10-10-10zm0 150H276V276h140zM416 86H276c-5.52 0-10 4.48-10 10v140c0 5.52 4.48 10 10 10h140c5.52 0 10-4.48 10-10V96c0-5.52-4.48-10-10-10zm0 150H276V96h140zM236 266H96c-5.52 0-10 4.48-10 10v140c0 5.52 4.48 10 10 10h140c5.52 0 10-4.48 10-10V276c0-5.52-4.48-10-10-10zm0 150H96V276h140zM236 86H96c-5.52 0-10 4.48-10 10v140c0 5.52 4.48 10 10 10h140c5.52 0 10-4.48 10-10V96c0-5.52-4.48-10-10-10zm0 150H96V96h140z" fill="#ffffff" data-original="#ffffff"></path></g></g></g></svg>