<svg xmlns="http://www.w3.org/2000/svg" version="1.1" xmlns:xlink="http://www.w3.org/1999/xlink" xmlns:svgjs="http://svgjs.com/svgjs" width="512" height="512" x="0" y="0" viewBox="0 0 512 512" style="enable-background:new 0 0 512 512" xml:space="preserve" class=""><g><linearGradient id="c" x1="231.676" x2="231.676" y1="181.3" y2="3.656" gradientUnits="userSpaceOnUse"><stop offset="0" stop-color="#41262f"></stop><stop offset="1" stop-color="#543843"></stop></linearGradient><linearGradient id="d" x1="195.11" x2="195.11" y1="421.909" y2="264.323" gradientUnits="userSpaceOnUse"><stop offset="0" stop-color="#20c59d"></stop><stop offset=".31" stop-color="#38ce8c"></stop><stop offset=".963" stop-color="#75e461"></stop><stop offset="1" stop-color="#79e55e"></stop></linearGradient><linearGradient id="a"><stop offset="0" stop-color="#0969db"></stop><stop offset="1" stop-color="#4f8aff"></stop></linearGradient><linearGradient xlink:href="#a" id="e" x1="195.11" x2="195.11" y1="508.344" y2="421.417" gradientUnits="userSpaceOnUse"></linearGradient><linearGradient id="b"><stop offset="0" stop-color="#f9403e"></stop><stop offset="1" stop-color="#f77953"></stop></linearGradient><linearGradient xlink:href="#b" id="f" x1="73.33" x2="73.33" y1="397.943" y2="175.988" gradientUnits="userSpaceOnUse"></linearGradient><linearGradient id="g" x1="195.11" x2="195.11" y1="397.943" y2="286.965" gradientUnits="userSpaceOnUse"><stop offset=".017" stop-color="#ccc"></stop><stop offset="1" stop-color="#f2f2f2"></stop></linearGradient><linearGradient id="h" x1="316.89" x2="316.89" y1="397.943" y2="94.588" gradientUnits="userSpaceOnUse"><stop offset="0" stop-color="#f79808"></stop><stop offset="1" stop-color="#ecbd0b"></stop></linearGradient><linearGradient xlink:href="#a" id="i" x1="438.67" x2="438.67" y1="397.943" y2="151.734" gradientUnits="userSpaceOnUse"></linearGradient><linearGradient xlink:href="#b" id="j" x1="404.344" x2="404.344" y1="101.524" y2="43.44" gradientUnits="userSpaceOnUse"></linearGradient><path fill="url(#c)" d="M192.252 180.465 70.475 102.689a5.312 5.312 0 0 1-1.619-7.336 5.307 5.307 0 0 1 7.336-1.619l117.57 75.088L312.598 5.837c1.737-2.391 5.149-2.916 7.533-1.077l73.13 56.412a5.316 5.316 0 0 1 .965 7.453c-1.795 2.319-5.131 2.752-7.45.962l-68.808-53.078-118.566 162.61a5.313 5.313 0 0 1-7.15 1.346z" data-original="url(#c)"></path><circle cx="195.11" cy="343.116" r="78.793" fill="url(#d)" data-original="url(#d)"></circle><path fill="url(#e)" d="M215.257 488.17c0 11.135-9.013 20.175-20.147 20.175s-20.147-9.04-20.147-20.175c0-7.965 4.63-45.917 11.355-66.753 2.894.331 5.815.496 8.792.496 2.976 0 5.898-.166 8.792-.496 6.725 20.836 11.355 58.787 11.355 66.753z" data-original="url(#e)"></path><path fill="url(#f)" d="M107.556 189.006v195.919c0 7.19-5.828 13.018-13.018 13.018H52.123c-7.19 0-13.018-5.828-13.018-13.018V189.006c0-7.19 5.828-13.018 13.018-13.018h42.415c7.19 0 13.018 5.828 13.018 13.018z" data-original="url(#f)"></path><path fill="url(#g)" d="M229.336 299.983v84.942c0 7.19-5.828 13.018-13.018 13.018h-42.415c-7.19 0-13.018-5.828-13.018-13.018v-84.942c0-7.19 5.828-13.018 13.018-13.018h42.415c7.189 0 13.018 5.828 13.018 13.018z" data-original="url(#g)"></path><path fill="url(#h)" d="M351.116 107.606v277.319c0 7.19-5.828 13.018-13.018 13.018h-42.415c-7.19 0-13.018-5.828-13.018-13.018V107.606c0-7.19 5.828-13.018 13.018-13.018h42.415c7.189 0 13.018 5.828 13.018 13.018z" data-original="url(#h)"></path><path fill="url(#i)" d="M472.895 164.752v220.172c0 7.19-5.828 13.018-13.018 13.018h-42.415c-7.19 0-13.018-5.828-13.018-13.018V164.752c0-7.19 5.828-13.018 13.018-13.018h42.415c7.19 0 13.018 5.829 13.018 13.018z" data-original="url(#i)"></path><path fill="url(#j)" d="m379.103 94.916 48.814 6.55c4.779.641 8.461-4.131 6.627-8.591l-18.728-45.551c-1.834-4.461-7.809-5.263-10.755-1.444l-30.085 39c-2.946 3.819-.653 9.395 4.127 10.036z" data-original="url(#j)"></path></g></svg>
